OpenSansIPA-Regular.ufo
<glyph name="sheva-hb" format="2">
	<advance width="0"/>
	<unicode hex="05B0"/>
	<anchor x="7" y="-65" name="_bottom"/>
	<note>
		afii57799
	</note>
	<outline>
		<contour>
			<point x="5.33333" y="-240.33333" type="curve" smooth="yes"/>
			<point x="52" y="-240.33333"/>
			<point x="76" y="-213.33333"/>
			<point x="76" y="-162.66667" type="curve" smooth="yes"/>
			<point x="76" y="-112"/>
			<point x="52" y="-85"/>
			<point x="5.33333" y="-85" type="curve" smooth="yes"/>
			<point x="-39.66667" y="-85"/>
			<point x="-63.33333" y="-112"/>
			<point x="-63.33333" y="-162.66667" type="curve" smooth="yes"/>
			<point x="-63.33333" y="-213.33333"/>
			<point x="-39.66667" y="-240.33333"/>
		</contour>
		<contour>
			<point x="5.33333" y="-499" type="curve" smooth="yes"/>
			<point x="52" y="-499"/>
			<point x="76" y="-471.66667"/>
			<point x="76" y="-420.33333" type="curve" smooth="yes"/>
			<point x="76" y="-370"/>
			<point x="52" y="-342.66667"/>
			<point x="5.33333" y="-342.66667" type="curve" smooth="yes"/>
			<point x="-39.66667" y="-342.66667"/>
			<point x="-63.33333" y="-370"/>
			<point x="-63.33333" y="-420.66667" type="curve" smooth="yes"/>
			<point x="-63.33333" y="-472"/>
			<point x="-39.66667" y="-499"/>
		</contour>
	</outline>
</glyph>
<glyph name="hatafsegol-hb" format="2">
	<advance width="0"/>
	<unicode hex="05B1"/>
	<anchor x="-9" y="-68.33333" name="_bottom"/>
	<note>
		afii57801
	</note>
	<outline>
		<contour>
			<point x="-283.33333" y="-243.66667" type="curve" smooth="yes"/>
			<point x="-238" y="-243.66667"/>
			<point x="-213.33333" y="-217"/>
			<point x="-213.33333" y="-166.33333" type="curve" smooth="yes"/>
			<point x="-213.33333" y="-115.33333"/>
			<point x="-238" y="-88.33333"/>
			<point x="-283.33333" y="-88.33333" type="curve" smooth="yes"/>
			<point x="-328" y="-88.33333"/>
			<point x="-352" y="-114.66667"/>
			<point x="-352" y="-166.33333" type="curve" smooth="yes"/>
			<point x="-352" y="-217"/>
			<point x="-328" y="-243.66667"/>
		</contour>
		<contour>
			<point x="5.66667" y="-243.66667" type="curve" smooth="yes"/>
			<point x="51.66667" y="-243.66667"/>
			<point x="76.33333" y="-217"/>
			<point x="76.33333" y="-166.33333" type="curve" smooth="yes"/>
			<point x="76.33333" y="-115.66667"/>
			<point x="51.66667" y="-88.33333"/>
			<point x="6" y="-88.33333" type="curve" smooth="yes"/>
			<point x="-39" y="-88.33333"/>
			<point x="-62.66667" y="-115"/>
			<point x="-62.66667" y="-166.33333" type="curve" smooth="yes"/>
			<point x="-62.66667" y="-217.33333"/>
			<point x="-39.66667" y="-243.66667"/>
		</contour>
		<contour>
			<point x="-139" y="-502.33333" type="curve" smooth="yes"/>
			<point x="-92.66667" y="-502.33333"/>
			<point x="-68.33333" y="-475.33333"/>
			<point x="-68.33333" y="-423.66667" type="curve" smooth="yes"/>
			<point x="-68.33333" y="-373.33333"/>
			<point x="-92.66667" y="-346.33333"/>
			<point x="-139" y="-346.33333" type="curve" smooth="yes"/>
			<point x="-183" y="-346.33333"/>
			<point x="-207.66667" y="-372"/>
			<point x="-207.66667" y="-423.66667" type="curve" smooth="yes"/>
			<point x="-207.66667" y="-475.66667"/>
			<point x="-184" y="-502.33333"/>
		</contour>
		<contour>
			<point x="262.66667" y="-502.33333" type="curve" smooth="yes"/>
			<point x="309.33333" y="-502.33333"/>
			<point x="333.33333" y="-475.33333"/>
			<point x="333.33333" y="-423.66667" type="curve" smooth="yes"/>
			<point x="333.33333" y="-373.33333"/>
			<point x="309.33333" y="-346.33333"/>
			<point x="262.66667" y="-346.33333" type="curve" smooth="yes"/>
			<point x="218.66667" y="-346.33333"/>
			<point x="194.66667" y="-373.33333"/>
			<point x="194.66667" y="-424" type="curve" smooth="yes"/>
			<point x="194.66667" y="-475.66667"/>
			<point x="218.66667" y="-502.33333"/>
		</contour>
		<contour>
			<point x="262.66667" y="-243.66667" type="curve" smooth="yes"/>
			<point x="309.33333" y="-243.66667"/>
			<point x="333.33333" y="-217"/>
			<point x="333.33333" y="-166.33333" type="curve" smooth="yes"/>
			<point x="333.33333" y="-115.33333"/>
			<point x="309.33333" y="-88.33333"/>
			<point x="262.66667" y="-88.33333" type="curve" smooth="yes"/>
			<point x="218.66667" y="-88.33333"/>
			<point x="194.66667" y="-115.33333"/>
			<point x="194.66667" y="-166.33333" type="curve" smooth="yes"/>
			<point x="194.66667" y="-217"/>
			<point x="218.66667" y="-243.66667"/>
		</contour>
	</outline>
</glyph>
<glyph name="hatafpatah-hb" format="2">
	<advance width="0"/>
	<unicode hex="05B2"/>
	<anchor x="-7" y="-68.33333" name="_bottom"/>
	<note>
		afii57800
	</note>
	<outline>
		<contour>
			<point x="-302" y="-206" type="line"/>
			<point x="57" y="-206" type="line"/>
			<point x="57" y="-124.33333" type="line"/>
			<point x="-302" y="-124.33333" type="line"/>
		</contour>
		<contour>
			<point x="215.66667" y="-502.33333" type="curve" smooth="yes"/>
			<point x="262.33333" y="-502.33333"/>
			<point x="286.66667" y="-475.33333"/>
			<point x="286.66667" y="-423.66667" type="curve" smooth="yes"/>
			<point x="286.66667" y="-373.33333"/>
			<point x="262" y="-346.33333"/>
			<point x="215.66667" y="-346.33333" type="curve" smooth="yes"/>
			<point x="172" y="-346.33333"/>
			<point x="147.33333" y="-372"/>
			<point x="147.33333" y="-423.66667" type="curve" smooth="yes"/>
			<point x="147.33333" y="-475.66667"/>
			<point x="171" y="-502.33333"/>
		</contour>
		<contour>
			<point x="215.66667" y="-243.66667" type="curve" smooth="yes"/>
			<point x="262.33333" y="-243.66667"/>
			<point x="286.66667" y="-217"/>
			<point x="286.66667" y="-166.33333" type="curve" smooth="yes"/>
			<point x="286.66667" y="-115.33333"/>
			<point x="262" y="-88.33333"/>
			<point x="215.66667" y="-88.33333" type="curve" smooth="yes"/>
			<point x="172" y="-88.33333"/>
			<point x="147.33333" y="-114"/>
			<point x="147.33333" y="-166" type="curve" smooth="yes"/>
			<point x="147.33333" y="-217"/>
			<point x="171" y="-243.66667"/>
		</contour>
	</outline>
</glyph>
<glyph name="hatafqamats-hb" format="2">
	<advance width="0"/>
	<unicode hex="05B3"/>
	<anchor x="-7.33333" y="-68.33333" name="_bottom"/>
	<note>
		afii57802
	</note>
	<outline>
		<contour>
			<point x="-163.66667" y="-408" type="line"/>
			<point x="-82.33333" y="-408" type="line"/>
			<point x="-82.33333" y="-206" type="line"/>
			<point x="56.33333" y="-206" type="line"/>
			<point x="56.33333" y="-124.33333" type="line"/>
			<point x="-302.33333" y="-124.33333" type="line"/>
			<point x="-302.33333" y="-206" type="line"/>
			<point x="-163.66667" y="-206" type="line"/>
		</contour>
		<contour>
			<point x="216" y="-502.33333" type="curve" smooth="yes"/>
			<point x="262.66667" y="-502.33333"/>
			<point x="287" y="-475.33333"/>
			<point x="287" y="-423.66667" type="curve" smooth="yes"/>
			<point x="287" y="-373.33333"/>
			<point x="262.66667" y="-346.33333"/>
			<point x="216" y="-346.33333" type="curve" smooth="yes"/>
			<point x="171" y="-346.33333"/>
			<point x="147.33333" y="-373.33333"/>
			<point x="147.33333" y="-424" type="curve" smooth="yes"/>
			<point x="147.33333" y="-475.66667"/>
			<point x="171" y="-502.33333"/>
		</contour>
		<contour>
			<point x="216" y="-243.66667" type="curve" smooth="yes"/>
			<point x="262.66667" y="-243.66667"/>
			<point x="287" y="-217"/>
			<point x="287" y="-166.33333" type="curve" smooth="yes"/>
			<point x="287" y="-115.33333"/>
			<point x="262.66667" y="-88.33333"/>
			<point x="216" y="-88.33333" type="curve" smooth="yes"/>
			<point x="171" y="-88.33333"/>
			<point x="147.33333" y="-115.33333"/>
			<point x="147.33333" y="-166.33333" type="curve" smooth="yes"/>
			<point x="147.33333" y="-217"/>
			<point x="171" y="-243.66667"/>
		</contour>
	</outline>
</glyph>
<glyph name="hiriq-hb" format="2">
	<advance width="0"/>
	<unicode hex="05B4"/>
	<anchor x="1" y="-67.33333" name="_bottom"/>
	<note>
		afii57793
	</note>
	<outline>
		<contour>
			<point x="-2" y="-242.66667" type="curve" smooth="yes"/>
			<point x="45.66667" y="-242.66667"/>
			<point x="70.33333" y="-215.33333"/>
			<point x="70.33333" y="-165" type="curve" smooth="yes"/>
			<point x="70.33333" y="-114.66667"/>
			<point x="45.66667" y="-87.33333"/>
			<point x="-1.66667" y="-87.33333" type="curve" smooth="yes"/>
			<point x="-46.66667" y="-87.33333"/>
			<point x="-70.33333" y="-114"/>
			<point x="-70.33333" y="-165" type="curve" smooth="yes"/>
			<point x="-70.33333" y="-216.33333"/>
			<point x="-47.33333" y="-242.66667"/>
		</contour>
	</outline>
</glyph>
<glyph name="tsere-hb" format="2">
	<advance width="0"/>
	<unicode hex="05B5"/>
	<anchor x="-7" y="-62.66667" name="_bottom"/>
	<note>
		afii57794
	</note>
	<outline>
		<contour>
			<point x="135.66667" y="-238.33333" type="curve" smooth="yes"/>
			<point x="181.66667" y="-238.33333"/>
			<point x="206.66667" y="-211"/>
			<point x="206.66667" y="-160.66667" type="curve" smooth="yes"/>
			<point x="206.66667" y="-110"/>
			<point x="181.66667" y="-82.66667"/>
			<point x="135.66667" y="-82.66667" type="curve" smooth="yes"/>
			<point x="90.66667" y="-82.66667"/>
			<point x="67" y="-109.33333"/>
			<point x="67" y="-160.66667" type="curve" smooth="yes"/>
			<point x="67" y="-211.66667"/>
			<point x="90.66667" y="-238.33333"/>
		</contour>
		<contour>
			<point x="-153.66667" y="-238.33333" type="curve" smooth="yes"/>
			<point x="-108" y="-238.33333"/>
			<point x="-83.66667" y="-211"/>
			<point x="-83.66667" y="-160.33333" type="curve" smooth="yes"/>
			<point x="-83.66667" y="-110"/>
			<point x="-108" y="-82.66667"/>
			<point x="-153.66667" y="-82.66667" type="curve" smooth="yes"/>
			<point x="-197.33333" y="-82.66667"/>
			<point x="-222" y="-108.33333"/>
			<point x="-222" y="-160.33333" type="curve" smooth="yes"/>
			<point x="-222" y="-211.33333"/>
			<point x="-198.66667" y="-238.33333"/>
		</contour>
	</outline>
</glyph>
<glyph name="segol-hb" format="2">
	<advance width="0"/>
	<unicode hex="05B6"/>
	<anchor x="-7" y="-68.33333" name="_bottom"/>
	<note>
		afii57795
	</note>
	<outline>
		<contour>
			<point x="-9" y="-502.33333" type="curve" smooth="yes"/>
			<point x="37.66667" y="-502.33333"/>
			<point x="61.66667" y="-475.33333"/>
			<point x="61.66667" y="-423.66667" type="curve" smooth="yes"/>
			<point x="61.66667" y="-373.33333"/>
			<point x="37.66667" y="-346.33333"/>
			<point x="-9" y="-346.33333" type="curve" smooth="yes"/>
			<point x="-54.33333" y="-346.33333"/>
			<point x="-78" y="-373.33333"/>
			<point x="-78" y="-424" type="curve" smooth="yes"/>
			<point x="-78" y="-475.66667"/>
			<point x="-54.33333" y="-502.33333"/>
		</contour>
		<contour>
			<point x="135.66667" y="-243.66667" type="curve" smooth="yes"/>
			<point x="181.66667" y="-243.66667"/>
			<point x="206.66667" y="-217"/>
			<point x="206.66667" y="-166.33333" type="curve" smooth="yes"/>
			<point x="206.66667" y="-115.66667"/>
			<point x="181.66667" y="-88.33333"/>
			<point x="135.66667" y="-88.33333" type="curve" smooth="yes"/>
			<point x="90.66667" y="-88.33333"/>
			<point x="67" y="-115"/>
			<point x="67" y="-166.33333" type="curve" smooth="yes"/>
			<point x="67" y="-217.33333"/>
			<point x="90.66667" y="-243.66667"/>
		</contour>
		<contour>
			<point x="-153.66667" y="-243.66667" type="curve" smooth="yes"/>
			<point x="-108" y="-243.66667"/>
			<point x="-83.66667" y="-217"/>
			<point x="-83.66667" y="-166.33333" type="curve" smooth="yes"/>
			<point x="-83.66667" y="-115.33333"/>
			<point x="-108" y="-88.33333"/>
			<point x="-153.66667" y="-88.33333" type="curve" smooth="yes"/>
			<point x="-197.33333" y="-88.33333"/>
			<point x="-222" y="-114"/>
			<point x="-222" y="-166" type="curve" smooth="yes"/>
			<point x="-222" y="-217"/>
			<point x="-198.66667" y="-243.66667"/>
		</contour>
	</outline>
</glyph>
<glyph name="patah-hb" format="2">
	<advance width="0"/>
	<unicode hex="05B7"/>
	<anchor x="-2.66667" y="27.33333" name="_bottom"/>
	<note>
		afii57798
	</note>
	<outline>
		<contour>
			<point x="-186.33333" y="-195" type="line"/>
			<point x="179" y="-195" type="line"/>
			<point x="179" y="-112.66667" type="line"/>
			<point x="-186.33333" y="-112.66667" type="line"/>
		</contour>
	</outline>
</glyph>
<glyph name="qamats-hb" format="2">
	<advance width="0"/>
	<unicode hex="05B8"/>
	<anchor x="-1.33333" y="22.66667" name="_bottom"/>
	<note>
		afii57797
	</note>
	<outline>
		<contour>
			<point x="-42.66667" y="-401" type="line"/>
			<point x="37.66667" y="-401" type="line"/>
			<point x="37.66667" y="-199.66667" type="line"/>
			<point x="179" y="-199.66667" type="line"/>
			<point x="179" y="-117.33333" type="line"/>
			<point x="-183.66667" y="-117.33333" type="line"/>
			<point x="-183.66667" y="-199.66667" type="line"/>
			<point x="-42.66667" y="-199.66667" type="line"/>
		</contour>
	</outline>
</glyph>
<glyph name="holam-hb" format="2">
	<advance width="0"/>
	<unicode hex="05B9"/>
	<anchor x="-1.33333" y="1384.66667" name="_top"/>
	<note>
		afii57806
	</note>
	<outline>
		<contour>
			<point x="-0.66667" y="1404.66667" type="curve" smooth="yes"/>
			<point x="46.33333" y="1404.66667"/>
			<point x="71" y="1431.66667"/>
			<point x="71" y="1482.33333" type="curve" smooth="yes"/>
			<point x="71" y="1532.66667"/>
			<point x="46.33333" y="1560"/>
			<point x="-0.33333" y="1560" type="curve" smooth="yes"/>
			<point x="-45.33333" y="1560"/>
			<point x="-69" y="1533.33333"/>
			<point x="-69" y="1482.33333" type="curve" smooth="yes"/>
			<point x="-69" y="1431"/>
			<point x="-45.66667" y="1404.66667"/>
		</contour>
	</outline>
</glyph>
<glyph name="holamhaser-hb" format="2">
	<advance width="0"/>
	<unicode hex="05BA"/>
	<anchor x="95.66667" y="1236.66667" name="_topleft"/>
	<note>
		uni05BA
	</note>
	<outline>
		<contour>
			<point x="4" y="1256.66667" type="curve" smooth="yes"/>
			<point x="51" y="1256.66667"/>
			<point x="75.66667" y="1283.66667"/>
			<point x="75.66667" y="1334.33333" type="curve" smooth="yes"/>
			<point x="75.66667" y="1384.66667"/>
			<point x="51" y="1412"/>
			<point x="4" y="1412" type="curve" smooth="yes"/>
			<point x="-40" y="1412"/>
			<point x="-63.66667" y="1385.33333"/>
			<point x="-63.66667" y="1334.33333" type="curve" smooth="yes"/>
			<point x="-63.66667" y="1283"/>
			<point x="-40.66667" y="1256.66667"/>
		</contour>
	</outline>
</glyph>
<glyph name="qubuts-hb" format="2">
	<advance width="0"/>
	<unicode hex="05BB"/>
	<anchor x="6.66667" y="-71" name="_bottom"/>
	<note>
		afii57796
	</note>
	<outline>
		<contour>
			<point x="-147.66667" y="-246.33333" type="curve" smooth="yes"/>
			<point x="-101.66667" y="-246.33333"/>
			<point x="-77.66667" y="-219.33333"/>
			<point x="-77.66667" y="-168.66667" type="curve" smooth="yes"/>
			<point x="-77.66667" y="-118"/>
			<point x="-102" y="-91"/>
			<point x="-147.66667" y="-91" type="curve" smooth="yes"/>
			<point x="-191.33333" y="-91"/>
			<point x="-216" y="-116.66667"/>
			<point x="-216" y="-168.66667" type="curve" smooth="yes"/>
			<point x="-216" y="-219.33333"/>
			<point x="-192.66667" y="-246.33333"/>
		</contour>
		<contour>
			<point x="3.66667" y="-388.66667" type="curve" smooth="yes"/>
			<point x="50.33333" y="-388.66667"/>
			<point x="74.66667" y="-361.33333"/>
			<point x="74.66667" y="-310" type="curve" smooth="yes"/>
			<point x="74.66667" y="-259.66667"/>
			<point x="50.33333" y="-232.33333"/>
			<point x="3.66667" y="-232.33333" type="curve" smooth="yes"/>
			<point x="-41" y="-232.33333"/>
			<point x="-65" y="-259.66667"/>
			<point x="-65" y="-310.33333" type="curve" smooth="yes"/>
			<point x="-65" y="-361.66667"/>
			<point x="-41" y="-388.66667"/>
		</contour>
		<contour>
			<point x="158" y="-530.66667" type="curve" smooth="yes"/>
			<point x="204" y="-530.66667"/>
			<point x="228.66667" y="-503.66667"/>
			<point x="228.66667" y="-452.33333" type="curve" smooth="yes"/>
			<point x="228.66667" y="-401.66667"/>
			<point x="204" y="-374.33333"/>
			<point x="158" y="-374.33333" type="curve" smooth="yes"/>
			<point x="113" y="-374.33333"/>
			<point x="89.33333" y="-401"/>
			<point x="89.33333" y="-452.33333" type="curve" smooth="yes"/>
			<point x="89.33333" y="-504.33333"/>
			<point x="112.66667" y="-530.66667"/>
		</contour>
	</outline>
</glyph>
<glyph name="dagesh-hb" format="2">
	<advance width="0"/>
	<unicode hex="05BC"/>
	<anchor x="6.33333" y="585.66667" name="_center"/>
	<note>
		afii57807
	</note>
	<outline>
		<contour>
			<point x="4" y="508" type="curve" smooth="yes"/>
			<point x="51" y="508"/>
			<point x="75.66667" y="535"/>
			<point x="75.66667" y="585.33333" type="curve" smooth="yes"/>
			<point x="75.66667" y="636"/>
			<point x="51" y="663.33333"/>
			<point x="4.33333" y="663.33333" type="curve" smooth="yes"/>
			<point x="-40.66667" y="663.33333"/>
			<point x="-64.33333" y="636.66667"/>
			<point x="-64.33333" y="585.33333" type="curve" smooth="yes"/>
			<point x="-64.33333" y="534.33333"/>
			<point x="-41.33333" y="508"/>
		</contour>
	</outline>
</glyph>
<glyph name="shindot-hb" format="2">
	<advance width="0"/>
	<unicode hex="05C1"/>
	<anchor x="6.33333" y="1097.66667" name="_topright"/>
	<note>
		afii57804
	</note>
	<outline>
		<contour>
			<point x="4.33333" y="1256.66667" type="curve" smooth="yes"/>
			<point x="51" y="1256.66667"/>
			<point x="75.66667" y="1283.66667"/>
			<point x="75.66667" y="1334.33333" type="curve" smooth="yes"/>
			<point x="75.66667" y="1384.66667"/>
			<point x="51" y="1412"/>
			<point x="4.33333" y="1412" type="curve" smooth="yes"/>
			<point x="-40.66667" y="1412"/>
			<point x="-64.33333" y="1385.33333"/>
			<point x="-64.33333" y="1334.33333" type="curve" smooth="yes"/>
			<point x="-64.33333" y="1283"/>
			<point x="-41" y="1256.66667"/>
		</contour>
	</outline>
</glyph>
<glyph name="sindot-hb" format="2">
	<advance width="0"/>
	<unicode hex="05C2"/>
	<anchor x="90.33333" y="1236.66667" name="_topleft"/>
	<note>
		afii57803
	</note>
	<outline>
		<contour>
			<point x="-2" y="1256.66667" type="curve" smooth="yes"/>
			<point x="45.66667" y="1256.66667"/>
			<point x="70.33333" y="1283.66667"/>
			<point x="70.33333" y="1334.33333" type="curve" smooth="yes"/>
			<point x="70.33333" y="1384.66667"/>
			<point x="45.66667" y="1412"/>
			<point x="-1.66667" y="1412" type="curve" smooth="yes"/>
			<point x="-46.66667" y="1412"/>
			<point x="-70.33333" y="1385.33333"/>
			<point x="-70.33333" y="1334.33333" type="curve" smooth="yes"/>
			<point x="-70.33333" y="1283"/>
			<point x="-47" y="1256.66667"/>
		</contour>
	</outline>
</glyph>
<glyph name="alef-hb" format="2">
	<advance width="1203.66667"/>
	<unicode hex="05D0"/>
	<anchor x="599" y="0" name="bottom"/>
	<anchor x="20.33333" y="0" name="bottomleft"/>
	<anchor x="482" y="323.66667" name="center"/>
	<anchor x="599" y="1097.66667" name="top"/>
	<anchor x="20.33333" y="1097.66667" name="topleft"/>
	<note>
		afii57664
	</note>
	<outline>
		<contour>
			<point x="113.33333" y="0" type="line"/>
			<point x="278.66667" y="0" type="line"/>
			<point x="278.66667" y="454" type="line" smooth="yes"/>
			<point x="278.66667" y="526.66667"/>
			<point x="286.66667" y="585.66667"/>
			<point x="304" y="630.66667" type="curve" smooth="yes"/>
			<point x="336" y="714"/>
			<point x="405" y="746.66667"/>
			<point x="452.66667" y="749" type="curve"/>
			<point x="904.66667" y="0" type="line"/>
			<point x="1090" y="0" type="line"/>
			<point x="831.66667" y="421.66667" type="line"/>
			<point x="919.33333" y="446.66667"/>
			<point x="982.66667" y="498.33333"/>
			<point x="1015" y="555" type="curve" smooth="yes"/>
			<point x="1053.66667" y="621.66667"/>
			<point x="1070.33333" y="705.66667"/>
			<point x="1070.33333" y="819.33333" type="curve" smooth="yes"/>
			<point x="1070.33333" y="1291" type="line"/>
			<point x="905" y="1291" type="line"/>
			<point x="905" y="819.33333" type="line" smooth="yes"/>
			<point x="905" y="683.66667"/>
			<point x="877" y="617"/>
			<point x="802" y="572" type="curve" smooth="yes"/>
			<point x="788.33333" y="561.33333"/>
			<point x="772" y="553"/>
			<point x="754" y="547.33333" type="curve"/>
			<point x="304.33333" y="1291" type="line"/>
			<point x="120" y="1291" type="line"/>
			<point x="375.33333" y="875" type="line"/>
			<point x="290" y="854.66667"/>
			<point x="229" y="816.33333"/>
			<point x="191.66667" y="760" type="curve" smooth="yes"/>
			<point x="127.33333" y="669"/>
			<point x="113.33333" y="578.66667"/>
			<point x="113.33333" y="454" type="curve" smooth="yes"/>
		</contour>
	</outline>
</glyph>
<glyph name="bet-hb" format="2">
	<advance width="1071.33333"/>
	<unicode hex="05D1"/>
	<anchor x="536.66667" y="0" name="bottom"/>
	<anchor x="27.66667" y="0" name="bottomleft"/>
	<anchor x="383.33333" y="666.33333" name="center"/>
	<anchor x="536.66667" y="1097.66667" name="top"/>
	<anchor x="27.66667" y="1097.66667" name="topleft"/>
	<note>
		afii57665
	</note>
	<outline>
		<contour>
			<point x="82.66667" y="0" type="line"/>
			<point x="1028.33333" y="0" type="line"/>
			<point x="1028.33333" y="137.33333" type="line"/>
			<point x="879.66667" y="137.33333" type="line"/>
			<point x="879.66667" y="921" type="line" smooth="yes"/>
			<point x="879.66667" y="1002.33333"/>
			<point x="869.33333" y="1066.33333"/>
			<point x="838.33333" y="1120.66667" type="curve" smooth="yes"/>
			<point x="804.66667" y="1196.33333"/>
			<point x="751" y="1241.33333"/>
			<point x="669" y="1271.66667" type="curve" smooth="yes"/>
			<point x="587.33333" y="1301.33333"/>
			<point x="506.33333" y="1311"/>
			<point x="373.33333" y="1311" type="curve" smooth="yes"/>
			<point x="277.33333" y="1311"/>
			<point x="180.66667" y="1306.66667"/>
			<point x="82" y="1297.33333" type="curve"/>
			<point x="82" y="1158.33333" type="line"/>
			<point x="213.66667" y="1167.33333"/>
			<point x="304.66667" y="1172.33333"/>
			<point x="368.33333" y="1172.33333" type="curve" smooth="yes"/>
			<point x="422" y="1172.33333"/>
			<point x="465.33333" y="1168.66667"/>
			<point x="497.66667" y="1162" type="curve" smooth="yes"/>
			<point x="638.66667" y="1142.33333"/>
			<point x="711" y="1074"/>
			<point x="711" y="917" type="curve" smooth="yes"/>
			<point x="711" y="137.33333" type="line"/>
			<point x="82.66667" y="137.33333" type="line"/>
		</contour>
	</outline>
</glyph>
<glyph name="gimel-hb" format="2">
	<advance width="830.33333"/>
	<unicode hex="05D2"/>
	<anchor x="417.66667" y="0" name="bottom"/>
	<anchor x="27.66667" y="0" name="bottomleft"/>
	<anchor x="256.33333" y="666.66667" name="center"/>
	<anchor x="417.66667" y="1097.66667" name="top"/>
	<anchor x="27.66667" y="1097.66667" name="topleft"/>
	<note>
		afii57666
	</note>
	<outline>
		<contour>
			<point x="179.33333" y="-7.66667" type="curve" smooth="yes"/>
			<point x="271.66667" y="-7.66667"/>
			<point x="351" y="25.66667"/>
			<point x="409.33333" y="84" type="curve" smooth="yes"/>
			<point x="437.33333" y="110.66667"/>
			<point x="471" y="156"/>
			<point x="500" y="205.66667" type="curve"/>
			<point x="509.66667" y="205.66667" type="line"/>
			<point x="531.33333" y="0" type="line"/>
			<point x="666" y="0" type="line"/>
			<point x="666" y="988.66667" type="line" smooth="yes"/>
			<point x="666" y="1102.33333"/>
			<point x="641.66667" y="1194"/>
			<point x="579" y="1249.33333" type="curve" smooth="yes"/>
			<point x="535.33333" y="1288.66667"/>
			<point x="469.66667" y="1311"/>
			<point x="379" y="1311" type="curve" smooth="yes"/>
			<point x="319.66667" y="1311"/>
			<point x="261" y="1304.66667"/>
			<point x="203" y="1292.33333" type="curve"/>
			<point x="203" y="1151" type="line"/>
			<point x="265.66667" y="1164"/>
			<point x="316.33333" y="1170.66667"/>
			<point x="363" y="1170.66667" type="curve" smooth="yes"/>
			<point x="471.66667" y="1170.66667"/>
			<point x="497.33333" y="1096.66667"/>
			<point x="497.33333" y="984.33333" type="curve" smooth="yes"/>
			<point x="497.33333" y="520" type="line" smooth="yes"/>
			<point x="497.33333" y="427.33333"/>
			<point x="476.33333" y="348.66667"/>
			<point x="440.33333" y="288" type="curve" smooth="yes"/>
			<point x="386" y="196.33333"/>
			<point x="298" y="144"/>
			<point x="194" y="144" type="curve" smooth="yes"/>
			<point x="150.33333" y="144"/>
			<point x="109.66667" y="148.33333"/>
			<point x="70.66667" y="157.33333" type="curve"/>
			<point x="49.33333" y="5.33333" type="line"/>
			<point x="99" y="-3"/>
			<point x="142.66667" y="-7.66667"/>
		</contour>
	</outline>
</glyph>
<glyph name="dalet-hb" format="2">
	<advance width="1033"/>
	<unicode hex="05D3"/>
	<anchor x="516.33333" y="0" name="bottom"/>
	<anchor x="24.33333" y="0" name="bottomleft"/>
	<anchor x="351.33333" y="666.66667" name="center"/>
	<anchor x="516.33333" y="1097.66667" name="top"/>
	<anchor x="24.33333" y="1097.66667" name="topleft"/>
	<note>
		afii57667
	</note>
	<outline>
		<contour>
			<point x="618.33333" y="0" type="line"/>
			<point x="787" y="0" type="line"/>
			<point x="787" y="893.33333" type="line" smooth="yes"/>
			<point x="787" y="963.66667"/>
			<point x="800.66667" y="1019.33333"/>
			<point x="830.66667" y="1062.33333" type="curve" smooth="yes"/>
			<point x="865" y="1112.66667"/>
			<point x="923" y="1143.33333"/>
			<point x="990.33333" y="1168.33333" type="curve"/>
			<point x="990.33333" y="1291" type="line"/>
			<point x="44.33333" y="1291" type="line"/>
			<point x="44.33333" y="1154" type="line"/>
			<point x="748" y="1154" type="line"/>
			<point x="713.66667" y="1133.66667"/>
			<point x="691.66667" y="1110.33333"/>
			<point x="663" y="1068.33333" type="curve" smooth="yes"/>
			<point x="637" y="1030"/>
			<point x="618.33333" y="966.33333"/>
			<point x="618.33333" y="895" type="curve" smooth="yes"/>
		</contour>
	</outline>
</glyph>
<glyph name="he-hb" format="2">
	<advance width="1285.66667"/>
	<unicode hex="05D4"/>
	<anchor x="642.66667" y="0" name="bottom"/>
	<anchor x="23.66667" y="0" name="bottomleft"/>
	<anchor x="642.66667" y="667" name="center"/>
	<anchor x="642.66667" y="1097.66667" name="top"/>
	<anchor x="23.66667" y="1097.66667" name="topleft"/>
	<note>
		afii57668
	</note>
	<outline>
		<contour>
			<point x="951" y="0" type="line"/>
			<point x="1120.66667" y="0" type="line"/>
			<point x="1120.66667" y="917" type="line" smooth="yes"/>
			<point x="1120.66667" y="987.66667"/>
			<point x="1112.66667" y="1043.33333"/>
			<point x="1093.33333" y="1095.66667" type="curve" smooth="yes"/>
			<point x="1060.66667" y="1180.66667"/>
			<point x="1007.33333" y="1230"/>
			<point x="924.66667" y="1265.33333" type="curve" smooth="yes"/>
			<point x="842.33333" y="1299.33333"/>
			<point x="759" y="1311"/>
			<point x="609" y="1311" type="curve" smooth="yes"/>
			<point x="545" y="1311"/>
			<point x="460.33333" y="1308"/>
			<point x="354.33333" y="1301" type="curve" smooth="yes"/>
			<point x="297.66667" y="1297.33333"/>
			<point x="238" y="1293"/>
			<point x="174.66667" y="1287" type="curve"/>
			<point x="174.66667" y="1147" type="line"/>
			<point x="376.66667" y="1164.33333"/>
			<point x="510.33333" y="1172.33333"/>
			<point x="594" y="1172.33333" type="curve" smooth="yes"/>
			<point x="658.66667" y="1172.33333"/>
			<point x="708.33333" y="1168.33333"/>
			<point x="741" y="1160.66667" type="curve" smooth="yes"/>
			<point x="880.33333" y="1140.66667"/>
			<point x="951" y="1072.66667"/>
			<point x="951" y="917" type="curve" smooth="yes"/>
		</contour>
		<contour>
			<point x="175" y="0" type="line"/>
			<point x="343.33333" y="0" type="line"/>
			<point x="343.33333" y="799.33333" type="line"/>
			<point x="175" y="799.33333" type="line"/>
		</contour>
	</outline>
</glyph>
<glyph name="vav-hb" format="2">
	<advance width="519"/>
	<unicode hex="05D5"/>
	<anchor x="259" y="0" name="bottom"/>
	<anchor x="23.66667" y="0" name="bottomleft"/>
	<anchor x="4" y="667" name="center"/>
	<anchor x="259" y="1297.66667" name="top"/>
	<anchor x="23.66667" y="1097.66667" name="topleft"/>
	<note>
		afii57669
	</note>
	<outline>
		<contour>
			<point x="174.66667" y="0" type="line"/>
			<point x="343.33333" y="0" type="line"/>
			<point x="343.33333" y="1291" type="line"/>
			<point x="174.66667" y="1291" type="line"/>
		</contour>
	</outline>
</glyph>
<glyph name="zayin-hb" format="2">
	<advance width="544.33333"/>
	<unicode hex="05D6"/>
	<anchor x="276" y="0" name="bottom"/>
	<anchor x="32" y="0" name="bottomleft"/>
	<anchor x="13.33333" y="667.66667" name="center"/>
	<anchor x="276" y="1097.66667" name="top"/>
	<anchor x="32" y="1097.66667" name="topleft"/>
	<note>
		afii57670
	</note>
	<outline>
		<contour>
			<point x="182.66667" y="0" type="line"/>
			<point x="351.33333" y="0" type="line"/>
			<point x="351.33333" y="728.66667" type="line" smooth="yes"/>
			<point x="351.33333" y="774.66667"/>
			<point x="354.66667" y="816.66667"/>
			<point x="361" y="854" type="curve" smooth="yes"/>
			<point x="369.66667" y="910.33333"/>
			<point x="385" y="972.33333"/>
			<point x="407" y="1022.33333" type="curve" smooth="yes"/>
			<point x="433" y="1079.66667"/>
			<point x="469.66667" y="1134.66667"/>
			<point x="510.66667" y="1167" type="curve"/>
			<point x="510.66667" y="1291" type="line"/>
			<point x="62" y="1291" type="line"/>
			<point x="62" y="1154" type="line"/>
			<point x="343.33333" y="1154" type="line"/>
			<point x="310" y="1125"/>
			<point x="278" y="1080.66667"/>
			<point x="246" y="1022.33333" type="curve" smooth="yes"/>
			<point x="207.66667" y="949.66667"/>
			<point x="182.66667" y="843.66667"/>
			<point x="182.66667" y="728.66667" type="curve" smooth="yes"/>
		</contour>
	</outline>
</glyph>
<glyph name="het-hb" format="2">
	<advance width="1285.66667"/>
	<unicode hex="05D7"/>
	<anchor x="642.66667" y="0" name="bottom"/>
	<anchor x="23.66667" y="0" name="bottomleft"/>
	<anchor x="642.66667" y="549.33333" name="center"/>
	<anchor x="642.66667" y="1097.66667" name="top"/>
	<anchor x="23.66667" y="1097.66667" name="topleft"/>
	<note>
		afii57671
	</note>
	<outline>
		<contour>
			<point x="174.66667" y="0" type="line"/>
			<point x="343.33333" y="0" type="line"/>
			<point x="343.33333" y="1160" type="line"/>
			<point x="450" y="1168"/>
			<point x="533.66667" y="1172.33333"/>
			<point x="594.66667" y="1172.33333" type="curve" smooth="yes"/>
			<point x="655.33333" y="1172.33333"/>
			<point x="701.33333" y="1169.66667"/>
			<point x="732.33333" y="1164.66667" type="curve" smooth="yes"/>
			<point x="877.33333" y="1146"/>
			<point x="951" y="1076.66667"/>
			<point x="951" y="917" type="curve" smooth="yes"/>
			<point x="951" y="0" type="line"/>
			<point x="1120.66667" y="0" type="line"/>
			<point x="1120.66667" y="917" type="line" smooth="yes"/>
			<point x="1120.66667" y="988.66667"/>
			<point x="1112.66667" y="1045.33333"/>
			<point x="1093.33333" y="1097.33333" type="curve" smooth="yes"/>
			<point x="1060.66667" y="1182.66667"/>
			<point x="1007.66667" y="1231.33333"/>
			<point x="924.66667" y="1266" type="curve" smooth="yes"/>
			<point x="842.33333" y="1299.66667"/>
			<point x="759.66667" y="1311"/>
			<point x="606" y="1311" type="curve" smooth="yes"/>
			<point x="518" y="1311"/>
			<point x="411.33333" y="1306"/>
			<point x="286.66667" y="1296.66667" type="curve" smooth="yes"/>
			<point x="229.66667" y="1292.33333"/>
			<point x="192" y="1289"/>
			<point x="174.66667" y="1287" type="curve"/>
		</contour>
	</outline>
</glyph>
<glyph name="tet-hb" format="2">
	<advance width="1282"/>
	<unicode hex="05D8"/>
	<anchor x="644" y="0" name="bottom"/>
	<anchor x="24" y="0" name="bottomleft"/>
	<anchor x="659.66667" y="667" name="center"/>
	<anchor x="644" y="1097.66667" name="top"/>
	<anchor x="24" y="1097.66667" name="topleft"/>
	<note>
		afii57672
	</note>
	<outline>
		<contour>
			<point x="666" y="-19.66667" type="curve" smooth="yes"/>
			<point x="766.66667" y="-19.66667"/>
			<point x="854" y="1.66667"/>
			<point x="926" y="45" type="curve" smooth="yes"/>
			<point x="1016" y="99.33333"/>
			<point x="1082.33333" y="185.66667"/>
			<point x="1123.66667" y="306.33333" type="curve" smooth="yes"/>
			<point x="1155.66667" y="400.66667"/>
			<point x="1172.33333" y="514.66667"/>
			<point x="1172.33333" y="649.66667" type="curve" smooth="yes"/>
			<point x="1172.33333" y="816.66667"/>
			<point x="1149.66667" y="950"/>
			<point x="1107" y="1051" type="curve" smooth="yes"/>
			<point x="1069" y="1142.66667"/>
			<point x="1013.33333" y="1208"/>
			<point x="942" y="1250" type="curve" smooth="yes"/>
			<point x="873" y="1292.33333"/>
			<point x="789" y="1311"/>
			<point x="696.33333" y="1311" type="curve" smooth="yes"/>
			<point x="660.66667" y="1311"/>
			<point x="624.33333" y="1308"/>
			<point x="587.33333" y="1302" type="curve"/>
			<point x="587.33333" y="1161.66667" type="line"/>
			<point x="615" y="1167.66667"/>
			<point x="642.33333" y="1170.66667"/>
			<point x="669.33333" y="1170.66667" type="curve" smooth="yes"/>
			<point x="765" y="1170.66667"/>
			<point x="852.33333" y="1138"/>
			<point x="908.33333" y="1061.66667" type="curve" smooth="yes"/>
			<point x="978.66667" y="963.33333"/>
			<point x="998.66667" y="810.33333"/>
			<point x="998.66667" y="649.33333" type="curve" smooth="yes"/>
			<point x="998.66667" y="484.66667"/>
			<point x="979" y="323.33333"/>
			<point x="900" y="225" type="curve" smooth="yes"/>
			<point x="850" y="160.66667"/>
			<point x="770.33333" y="121.66667"/>
			<point x="667.33333" y="121.66667" type="curve" smooth="yes"/>
			<point x="566.66667" y="121.66667"/>
			<point x="488.66667" y="158.33333"/>
			<point x="439" y="220.33333" type="curve" smooth="yes"/>
			<point x="369.33333" y="305.66667"/>
			<point x="334.33333" y="448.33333"/>
			<point x="334.33333" y="649.66667" type="curve" smooth="yes"/>
			<point x="334.33333" y="1291" type="line"/>
			<point x="164.66667" y="1291" type="line"/>
			<point x="164.66667" y="649.66667" type="line" smooth="yes"/>
			<point x="164.66667" y="476.33333"/>
			<point x="189.66667" y="341"/>
			<point x="241" y="235" type="curve" smooth="yes"/>
			<point x="284.33333" y="143.66667"/>
			<point x="344.66667" y="80"/>
			<point x="415.66667" y="38.66667" type="curve" smooth="yes"/>
			<point x="485.33333" y="-1.66667"/>
			<point x="573" y="-19.66667"/>
		</contour>
	</outline>
</glyph>
<glyph name="yod-hb" format="2">
	<advance width="492"/>
	<unicode hex="05D9"/>
	<anchor x="246" y="0" name="bottom"/>
	<anchor x="22.33333" y="0" name="bottomleft"/>
	<anchor x="9.66667" y="905.33333" name="center"/>
	<anchor x="246" y="1097.66667" name="top"/>
	<anchor x="22.33333" y="1097.66667" name="topleft"/>
	<note>
		afii57673
	</note>
	<outline>
		<contour>
			<point x="162.33333" y="467.33333" type="line"/>
			<point x="209.66667" y="467.33333" type="line"/>
			<point x="331" y="618" type="line"/>
			<point x="331" y="1291" type="line"/>
			<point x="162.33333" y="1291" type="line"/>
		</contour>
	</outline>
</glyph>
<glyph name="finalkaf-hb" format="2">
	<advance width="1009.66667"/>
	<unicode hex="05DA"/>
	<anchor x="506.33333" y="0" name="bottom"/>
	<anchor x="26" y="0" name="bottomleft"/>
	<anchor x="349" y="667.66667" name="center"/>
	<anchor x="506.33333" y="1097.66667" name="top"/>
	<anchor x="26" y="1097.66667" name="topleft"/>
	<note>
		afii57674
	</note>
	<outline>
		<contour>
			<point x="676.33333" y="-492" type="line"/>
			<point x="846.66667" y="-492" type="line"/>
			<point x="846.66667" y="719.66667" type="line" smooth="yes"/>
			<point x="846.66667" y="847.33333"/>
			<point x="825" y="957.33333"/>
			<point x="781" y="1050.66667" type="curve" smooth="yes"/>
			<point x="756.66667" y="1103.33333"/>
			<point x="726" y="1148"/>
			<point x="688.33333" y="1185.66667" type="curve" smooth="yes"/>
			<point x="613.66667" y="1260"/>
			<point x="485.33333" y="1310.33333"/>
			<point x="350.33333" y="1310.33333" type="curve" smooth="yes"/>
			<point x="283" y="1310.33333"/>
			<point x="221.33333" y="1306.33333"/>
			<point x="166" y="1298" type="curve" smooth="yes"/>
			<point x="111.33333" y="1289.66667"/>
			<point x="67.33333" y="1280.33333"/>
			<point x="33.66667" y="1270" type="curve"/>
			<point x="33.66667" y="1126" type="line"/>
			<point x="61.66667" y="1133"/>
			<point x="118.66667" y="1149.33333"/>
			<point x="150" y="1154.66667" type="curve" smooth="yes"/>
			<point x="200" y="1165.33333"/>
			<point x="254.66667" y="1171.66667"/>
			<point x="316.33333" y="1171.66667" type="curve" smooth="yes"/>
			<point x="399.33333" y="1171.66667"/>
			<point x="468" y="1153.66667"/>
			<point x="520.66667" y="1117.66667" type="curve" smooth="yes"/>
			<point x="557.33333" y="1094"/>
			<point x="588.33333" y="1060.66667"/>
			<point x="611.33333" y="1020.33333" type="curve" smooth="yes"/>
			<point x="656.33333" y="943"/>
			<point x="676.33333" y="844.33333"/>
			<point x="676.33333" y="720.33333" type="curve" smooth="yes"/>
		</contour>
	</outline>
</glyph>
<glyph name="kaf-hb" format="2">
	<advance width="992.33333"/>
	<unicode hex="05DB"/>
	<anchor x="497" y="0" name="bottom"/>
	<anchor x="19.33333" y="0" name="bottomleft"/>
	<anchor x="356" y="667.66667" name="center"/>
	<anchor x="497" y="1097.66667" name="top"/>
	<anchor x="19.33333" y="1097.66667" name="topleft"/>
	<note>
		afii57675
	</note>
	<outline>
		<contour>
			<point x="386.66667" y="-20" type="curve" smooth="yes"/>
			<point x="483.33333" y="-20"/>
			<point x="602.66667" y="-1.33333"/>
			<point x="694" y="81.33333" type="curve" smooth="yes"/>
			<point x="755.66667" y="122.33333"/>
			<point x="798" y="178"/>
			<point x="829" y="247.66667" type="curve" smooth="yes"/>
			<point x="865.33333" y="332.66667"/>
			<point x="883" y="428.66667"/>
			<point x="883" y="542.66667" type="curve" smooth="yes"/>
			<point x="883" y="719.66667" type="line" smooth="yes"/>
			<point x="883" y="847.33333"/>
			<point x="861.66667" y="957.33333"/>
			<point x="817.66667" y="1050.66667" type="curve" smooth="yes"/>
			<point x="793.33333" y="1103.33333"/>
			<point x="762.66667" y="1148"/>
			<point x="724.66667" y="1185.66667" type="curve" smooth="yes"/>
			<point x="650" y="1260"/>
			<point x="521.66667" y="1310.33333"/>
			<point x="386" y="1310.33333" type="curve" smooth="yes"/>
			<point x="314.66667" y="1310.33333"/>
			<point x="251.66667" y="1307"/>
			<point x="197" y="1299" type="curve" smooth="yes"/>
			<point x="145.33333" y="1291"/>
			<point x="113" y="1284.66667"/>
			<point x="70" y="1270" type="curve"/>
			<point x="70" y="1126" type="line"/>
			<point x="76.66667" y="1127.33333"/>
			<point x="91.33333" y="1131.33333"/>
			<point x="113.33333" y="1138" type="curve" smooth="yes"/>
			<point x="195" y="1160.66667"/>
			<point x="274.66667" y="1171.66667"/>
			<point x="352.66667" y="1171.66667" type="curve" smooth="yes"/>
			<point x="466.66667" y="1171.66667"/>
			<point x="558.33333" y="1136.33333"/>
			<point x="617.66667" y="1064.66667" type="curve" smooth="yes"/>
			<point x="683.33333" y="986.66667"/>
			<point x="713" y="866"/>
			<point x="713" y="720.33333" type="curve" smooth="yes"/>
			<point x="713" y="542.66667" type="line" smooth="yes"/>
			<point x="713" y="460.66667"/>
			<point x="694.66667" y="383"/>
			<point x="675.33333" y="330" type="curve" smooth="yes"/>
			<point x="656" y="278"/>
			<point x="620.66667" y="224.33333"/>
			<point x="576.33333" y="187" type="curve" smooth="yes"/>
			<point x="529.33333" y="147.66667"/>
			<point x="460.33333" y="121.66667"/>
			<point x="372.66667" y="121.66667" type="curve" smooth="yes"/>
			<point x="264.66667" y="121.66667"/>
			<point x="136" y="144"/>
			<point x="70" y="167.33333" type="curve"/>
			<point x="70" y="14" type="line"/>
			<point x="164" y="-8.66667"/>
			<point x="264" y="-20"/>
		</contour>
	</outline>
</glyph>
<glyph name="lamed-hb" format="2">
	<advance width="991.66667"/>
	<unicode hex="05DC"/>
	<anchor x="496" y="0" name="bottom"/>
	<anchor x="27.33333" y="0" name="bottomleft"/>
	<anchor x="322.66667" y="667" name="center"/>
	<anchor x="496" y="1097.66667" name="top"/>
	<anchor x="27.33333" y="1097.66667" name="topleft"/>
	<note>
		afii57676
	</note>
	<outline>
		<contour>
			<point x="461" y="0" type="line"/>
			<point x="630" y="0" type="line"/>
			<point x="725" y="501" type="line"/>
			<point x="911.66667" y="1153" type="line"/>
			<point x="911.66667" y="1295.66667" type="line"/>
			<point x="222.33333" y="1295.66667" type="line"/>
			<point x="222.33333" y="1564.66667" type="line"/>
			<point x="53.66667" y="1564.66667" type="line"/>
			<point x="53.66667" y="1152.33333" type="line"/>
			<point x="746" y="1152.33333" type="line"/>
			<point x="555.66667" y="494.33333" type="line"/>
		</contour>
	</outline>
</glyph>
<glyph name="finalmem-hb" format="2">
	<advance width="1279"/>
	<unicode hex="05DD"/>
	<anchor x="639.66667" y="0" name="bottom"/>
	<anchor x="24.66667" y="0" name="bottomleft"/>
	<anchor x="639.66667" y="549.33333" name="center"/>
	<anchor x="639.66667" y="1097.66667" name="top"/>
	<anchor x="24.66667" y="1097.66667" name="topleft"/>
	<note>
		afii57677
	</note>
	<outline>
		<contour>
			<point x="168" y="0" type="line"/>
			<point x="1114" y="0" type="line"/>
			<point x="1114" y="931.33333" type="line" smooth="yes"/>
			<point x="1114" y="998.33333"/>
			<point x="1104.66667" y="1055"/>
			<point x="1085" y="1103" type="curve" smooth="yes"/>
			<point x="1052.33333" y="1182.66667"/>
			<point x="1001.33333" y="1230.33333"/>
			<point x="923.66667" y="1263" type="curve" smooth="yes"/>
			<point x="839" y="1299"/>
			<point x="754.66667" y="1311"/>
			<point x="598.66667" y="1311" type="curve" smooth="yes"/>
			<point x="510.33333" y="1311"/>
			<point x="403.33333" y="1306"/>
			<point x="278.33333" y="1296.33333" type="curve" smooth="yes"/>
			<point x="222" y="1292.33333"/>
			<point x="184.66667" y="1289"/>
			<point x="168" y="1287" type="curve"/>
		</contour>
		<contour>
			<point x="336.66667" y="137.33333" type="line"/>
			<point x="336.66667" y="1159.66667" type="line"/>
			<point x="442.66667" y="1167.66667"/>
			<point x="526.66667" y="1172"/>
			<point x="588" y="1172" type="curve" smooth="yes"/>
			<point x="650.66667" y="1172"/>
			<point x="697.66667" y="1169.66667"/>
			<point x="729.66667" y="1165" type="curve" smooth="yes"/>
			<point x="791.33333" y="1158"/>
			<point x="840.33333" y="1141.66667"/>
			<point x="875.33333" y="1113.33333" type="curve" smooth="yes"/>
			<point x="921.33333" y="1077"/>
			<point x="944.33333" y="1020"/>
			<point x="944.33333" y="934" type="curve" smooth="yes"/>
			<point x="944.33333" y="137.33333" type="line"/>
		</contour>
	</outline>
</glyph>
<glyph name="mem-hb" format="2">
	<advance width="1271"/>
	<unicode hex="05DE"/>
	<anchor x="630.66667" y="0" name="bottom"/>
	<anchor x="24.33333" y="0" name="bottomleft"/>
	<anchor x="631" y="667" name="center"/>
	<anchor x="630.66667" y="1097.66667" name="top"/>
	<anchor x="24.33333" y="1097.66667" name="topleft"/>
	<note>
		afii57678
	</note>
	<outline>
		<contour>
			<point x="98.66667" y="0" type="line"/>
			<point x="266" y="0" type="line"/>
			<point x="358" y="990.66667" type="line"/>
			<point x="378.66667" y="1034.66667"/>
			<point x="415.66667" y="1075.33333"/>
			<point x="460" y="1107.33333" type="curve" smooth="yes"/>
			<point x="507" y="1140.66667"/>
			<point x="587" y="1170.33333"/>
			<point x="673" y="1170.33333" type="curve" smooth="yes"/>
			<point x="761" y="1170.33333"/>
			<point x="819.66667" y="1136.33333"/>
			<point x="858.66667" y="1083.66667" type="curve" smooth="yes"/>
			<point x="904" y="1031.66667"/>
			<point x="926.66667" y="951.66667"/>
			<point x="926.66667" y="849.33333" type="curve" smooth="yes"/>
			<point x="926.66667" y="137.33333" type="line"/>
			<point x="655" y="137.33333" type="line"/>
			<point x="655" y="0" type="line"/>
			<point x="1096" y="0" type="line"/>
			<point x="1096" y="849.33333" type="line" smooth="yes"/>
			<point x="1096" y="965.66667"/>
			<point x="1075" y="1063"/>
			<point x="1034.66667" y="1137.66667" type="curve" smooth="yes"/>
			<point x="1010.66667" y="1181.33333"/>
			<point x="978.33333" y="1218"/>
			<point x="937.66667" y="1246.66667" type="curve" smooth="yes"/>
			<point x="881.33333" y="1287.66667"/>
			<point x="807.33333" y="1311"/>
			<point x="718.33333" y="1311" type="curve" smooth="yes"/>
			<point x="621" y="1311"/>
			<point x="530.33333" y="1284.33333"/>
			<point x="478" y="1257.33333" type="curve" smooth="yes"/>
			<point x="426.33333" y="1230.66667"/>
			<point x="366.66667" y="1183.33333"/>
			<point x="349" y="1157" type="curve"/>
			<point x="335.66667" y="1157" type="line"/>
			<point x="328" y="1196.66667"/>
			<point x="312" y="1243"/>
			<point x="287.66667" y="1295.66667" type="curve"/>
			<point x="124.66667" y="1295.66667" type="line"/>
			<point x="130.66667" y="1280"/>
			<point x="136" y="1264.66667"/>
			<point x="142" y="1249" type="curve" smooth="yes"/>
			<point x="146.33333" y="1234.66667"/>
			<point x="172.66667" y="1159.66667"/>
			<point x="176.66667" y="1140" type="curve" smooth="yes"/>
			<point x="187.33333" y="1095.33333"/>
			<point x="192.33333" y="1062.66667"/>
			<point x="192.33333" y="1023.33333" type="curve" smooth="yes"/>
			<point x="192.33333" y="1004.33333"/>
			<point x="191" y="985.66667"/>
			<point x="189" y="961.33333" type="curve" smooth="yes"/>
		</contour>
	</outline>
</glyph>
<glyph name="finalnun-hb" format="2">
	<advance width="508.66667"/>
	<unicode hex="05DF"/>
	<anchor x="255.66667" y="0" name="bottom"/>
	<anchor x="26.33333" y="0" name="bottomleft"/>
	<anchor x="255.66667" y="549.33333" name="center"/>
	<anchor x="255.66667" y="1097.66667" name="top"/>
	<anchor x="26.33333" y="1097.66667" name="topleft"/>
	<note>
		afii57679
	</note>
	<outline>
		<contour>
			<point x="166.66667" y="-487.66667" type="line"/>
			<point x="335.33333" y="-487.66667" type="line"/>
			<point x="335.33333" y="885.33333" type="line" smooth="yes"/>
			<point x="335.33333" y="1009.33333"/>
			<point x="303.33333" y="1180"/>
			<point x="288.33333" y="1231.33333" type="curve" smooth="yes"/>
			<point x="281.33333" y="1256.66667"/>
			<point x="275" y="1276"/>
			<point x="270" y="1291" type="curve"/>
			<point x="100.33333" y="1291" type="line"/>
			<point x="104.66667" y="1277.66667"/>
			<point x="109" y="1264"/>
			<point x="112.66667" y="1251" type="curve" smooth="yes"/>
			<point x="146.33333" y="1143"/>
			<point x="166.66667" y="1012.66667"/>
			<point x="166.66667" y="885.33333" type="curve" smooth="yes"/>
		</contour>
	</outline>
</glyph>
<glyph name="nun-hb" format="2">
	<advance width="882.33333"/>
	<unicode hex="05E0"/>
	<anchor x="445.66667" y="0" name="bottom"/>
	<anchor x="21" y="0" name="bottomleft"/>
	<anchor x="348" y="667.66667" name="center"/>
	<anchor x="445.66667" y="1097.66667" name="top"/>
	<anchor x="21" y="1097.66667" name="topleft"/>
	<note>
		afii57680
	</note>
	<outline>
		<contour>
			<point x="116.66667" y="0" type="line"/>
			<point x="688.66667" y="0" type="line"/>
			<point x="698.33333" y="51" type="line" smooth="yes"/>
			<point x="711.66667" y="117.66667"/>
			<point x="729.33333" y="251"/>
			<point x="729.33333" y="349.66667" type="curve" smooth="yes"/>
			<point x="729.33333" y="984.33333" type="line" smooth="yes"/>
			<point x="729.33333" y="1054"/>
			<point x="715.33333" y="1115"/>
			<point x="687.66667" y="1162" type="curve" smooth="yes"/>
			<point x="668.33333" y="1205.33333"/>
			<point x="638" y="1243.33333"/>
			<point x="597.66667" y="1269.33333" type="curve" smooth="yes"/>
			<point x="555" y="1295.66667"/>
			<point x="499.33333" y="1311"/>
			<point x="422" y="1311" type="curve" smooth="yes"/>
			<point x="353" y="1311"/>
			<point x="293.33333" y="1306"/>
			<point x="242.66667" y="1296" type="curve"/>
			<point x="242.66667" y="1154.33333" type="line"/>
			<point x="303.66667" y="1165"/>
			<point x="358.33333" y="1170.66667"/>
			<point x="412.33333" y="1170.66667" type="curve" smooth="yes"/>
			<point x="454.66667" y="1170.66667"/>
			<point x="487.33333" y="1157.33333"/>
			<point x="511.66667" y="1134" type="curve" smooth="yes"/>
			<point x="544.66667" y="1101"/>
			<point x="560.33333" y="1048.334"/>
			<point x="560.33333" y="984.33333" type="curve" smooth="yes"/>
			<point x="560.33333" y="349.66667" type="line" smooth="yes"/>
			<point x="560.33333" y="280.33333"/>
			<point x="552.66667" y="210"/>
			<point x="537" y="137.33333" type="curve"/>
			<point x="116.66667" y="137.33333" type="line"/>
		</contour>
	</outline>
</glyph>
<glyph name="samekh-hb" format="2">
	<advance width="1227.33333"/>
	<unicode hex="05E1"/>
	<anchor x="614.33333" y="0" name="bottom"/>
	<anchor x="18.66667" y="0" name="bottomleft"/>
	<anchor x="614.66667" y="667" name="center"/>
	<anchor x="614.33333" y="1097.66667" name="top"/>
	<anchor x="18.66667" y="1097.66667" name="topleft"/>
	<note>
		afii57681
	</note>
	<outline>
		<contour>
			<point x="612.66667" y="-19.66667" type="curve" smooth="yes"/>
			<point x="708.66667" y="-19.66667"/>
			<point x="793.66667" y="1"/>
			<point x="863.66667" y="41.33333" type="curve" smooth="yes"/>
			<point x="965.33333" y="100"/>
			<point x="1038.66667" y="200"/>
			<point x="1079.66667" y="342" type="curve" smooth="yes"/>
			<point x="1105" y="429"/>
			<point x="1118" y="531"/>
			<point x="1118" y="648.33333" type="curve" smooth="yes"/>
			<point x="1118" y="798.33333"/>
			<point x="1096.66667" y="922.66667"/>
			<point x="1056.33333" y="1021" type="curve" smooth="yes"/>
			<point x="1018.66667" y="1113"/>
			<point x="964" y="1183"/>
			<point x="892.66667" y="1230.33333" type="curve" smooth="yes"/>
			<point x="817.33333" y="1284.66667"/>
			<point x="722.66667" y="1311"/>
			<point x="613.33333" y="1311" type="curve" smooth="yes"/>
			<point x="472.33333" y="1311"/>
			<point x="311.33333" y="1305.33333"/>
			<point x="128.33333" y="1295" type="curve"/>
			<point x="128.33333" y="1153" type="line"/>
			<point x="281.33333" y="1160" type="line"/>
			<point x="278" y="1157.33333" type="line"/>
			<point x="166" y="1053.33333"/>
			<point x="110" y="883.33333"/>
			<point x="110" y="647.66667" type="curve" smooth="yes"/>
			<point x="110" y="513"/>
			<point x="126.66667" y="399"/>
			<point x="159" y="304.66667" type="curve" smooth="yes"/>
			<point x="203.33333" y="177.66667"/>
			<point x="274.66667" y="88"/>
			<point x="371.66667" y="36" type="curve" smooth="yes"/>
			<point x="440" y="-1.66667"/>
			<point x="521" y="-19.66667"/>
		</contour>
		<contour>
			<point x="612.66667" y="121" type="curve" smooth="yes"/>
			<point x="509" y="121"/>
			<point x="430.33333" y="160.66667"/>
			<point x="380.66667" y="226.66667" type="curve" smooth="yes"/>
			<point x="315.66667" y="310.33333"/>
			<point x="283.66667" y="451"/>
			<point x="283.66667" y="647.66667" type="curve" smooth="yes"/>
			<point x="283.66667" y="887"/>
			<point x="335.66667" y="1048.66667"/>
			<point x="451.33333" y="1166.33333" type="curve"/>
			<point x="504" y="1170.66667"/>
			<point x="550.66667" y="1172"/>
			<point x="620.33333" y="1172" type="curve" smooth="yes"/>
			<point x="692" y="1172"/>
			<point x="760.33333" y="1148.33333"/>
			<point x="807" y="1107.33333" type="curve" smooth="yes"/>
			<point x="889.66667" y="1035.66667"/>
			<point x="942.66667" y="900.66667"/>
			<point x="942.66667" y="648" type="curve" smooth="yes"/>
			<point x="942.66667" y="491"/>
			<point x="921.33333" y="323"/>
			<point x="845.66667" y="227" type="curve" smooth="yes"/>
			<point x="796.33333" y="160.66667"/>
			<point x="716.66667" y="121"/>
		</contour>
	</outline>
</glyph>
<glyph name="ayin-hb" format="2">
	<advance width="1206.33333"/>
	<unicode hex="05E2"/>
	<anchor x="604.66667" y="0" name="bottom"/>
	<anchor x="26" y="0" name="bottomleft"/>
	<anchor x="604.66667" y="549.33333" name="center"/>
	<anchor x="604.66667" y="1097.66667" name="top"/>
	<anchor x="26" y="1097.66667" name="topleft"/>
	<note>
		afii57682
	</note>
	<outline>
		<contour>
			<point x="60" y="-54" type="line"/>
			<point x="153" y="-40"/>
			<point x="259.66667" y="-24.66667"/>
			<point x="379.66667" y="-6" type="curve" smooth="yes"/>
			<point x="624.66667" y="30.33333"/>
			<point x="805.66667" y="139"/>
			<point x="915.66667" y="299.33333" type="curve" smooth="yes"/>
			<point x="1013" y="421.33333"/>
			<point x="1069.66667" y="565.66667"/>
			<point x="1085.66667" y="732.66667" type="curve" smooth="yes"/>
			<point x="1140.33333" y="1291" type="line"/>
			<point x="980" y="1291" type="line"/>
			<point x="925.66667" y="728.33333" type="line" smooth="yes"/>
			<point x="901" y="483.33333"/>
			<point x="768" y="296"/>
			<point x="581" y="202.66667" type="curve"/>
			<point x="460.66667" y="712.33333" type="line"/>
			<point x="308.33333" y="1291" type="line"/>
			<point x="142" y="1291" type="line"/>
			<point x="444.33333" y="150.66667" type="line"/>
			<point x="404.66667" y="139.66667"/>
			<point x="365.66667" y="131"/>
			<point x="327.66667" y="125" type="curve" smooth="yes"/>
			<point x="60" y="85.33333" type="line"/>
		</contour>
	</outline>
</glyph>
<glyph name="finalpe-hb" format="2">
	<advance width="1251"/>
	<unicode hex="05E3"/>
	<anchor x="624.66667" y="0" name="bottom"/>
	<anchor x="23.33333" y="0" name="bottomleft"/>
	<anchor x="579" y="857.66667" name="center"/>
	<anchor x="624.66667" y="1097.66667" name="top"/>
	<anchor x="23.33333" y="1097.66667" name="topleft"/>
	<note>
		afii57683
	</note>
	<outline>
		<contour>
			<point x="915" y="-492" type="line"/>
			<point x="1085" y="-492" type="line"/>
			<point x="1085" y="645.66667" type="line" smooth="yes"/>
			<point x="1085" y="817.33333"/>
			<point x="1059" y="954.66667"/>
			<point x="1008" y="1059.33333" type="curve" smooth="yes"/>
			<point x="968.66667" y="1141"/>
			<point x="913" y="1202.66667"/>
			<point x="847.33333" y="1243.33333" type="curve" smooth="yes"/>
			<point x="774.66667" y="1289"/>
			<point x="685.33333" y="1311"/>
			<point x="581.33333" y="1311" type="curve" smooth="yes"/>
			<point x="494.66667" y="1311"/>
			<point x="415.66667" y="1294.33333"/>
			<point x="342.33333" y="1261" type="curve" smooth="yes"/>
			<point x="297.66667" y="1239.66667"/>
			<point x="240" y="1201.66667"/>
			<point x="206" y="1166" type="curve" smooth="yes"/>
			<point x="135" y="1094"/>
			<point x="89.33333" y="983.66667"/>
			<point x="89.33333" y="859.66667" type="curve" smooth="yes"/>
			<point x="89.33333" y="740"/>
			<point x="122.66667" y="642"/>
			<point x="180" y="570" type="curve" smooth="yes"/>
			<point x="248.66667" y="484.33333"/>
			<point x="351.66667" y="435.66667"/>
			<point x="472.66667" y="434.66667" type="curve" smooth="yes"/>
			<point x="499.33333" y="434" type="line"/>
			<point x="526" y="559" type="line"/>
			<point x="496.33333" y="564.33333" type="line" smooth="yes"/>
			<point x="433.66667" y="574.33333"/>
			<point x="382.66667" y="594"/>
			<point x="342.66667" y="624" type="curve" smooth="yes"/>
			<point x="280" y="671.66667"/>
			<point x="249" y="751.33333"/>
			<point x="249" y="857.66667" type="curve" smooth="yes"/>
			<point x="249" y="938.66667"/>
			<point x="277.66667" y="1013.33333"/>
			<point x="329" y="1071" type="curve" smooth="yes"/>
			<point x="384.33333" y="1137.66667"/>
			<point x="481.33333" y="1170"/>
			<point x="582.33333" y="1170" type="curve" smooth="yes"/>
			<point x="681.66667" y="1170"/>
			<point x="764.66667" y="1137.33333"/>
			<point x="817.66667" y="1065.66667" type="curve" smooth="yes"/>
			<point x="882.33333" y="985.33333"/>
			<point x="915" y="845.33333"/>
			<point x="915" y="645.66667" type="curve" smooth="yes"/>
		</contour>
	</outline>
</glyph>
<glyph name="pe-hb" format="2">
	<advance width="1216.33333"/>
	<unicode hex="05E4"/>
	<anchor x="607.33333" y="0" name="bottom"/>
	<anchor x="18.66667" y="0" name="bottomleft"/>
	<anchor x="607.66667" y="845" name="center"/>
	<anchor x="607.33333" y="1097.66667" name="top"/>
	<anchor x="18.66667" y="1097.66667" name="topleft"/>
	<note>
		afii57684
	</note>
	<outline>
		<contour>
			<point x="598" y="-20" type="curve" smooth="yes"/>
			<point x="694.33333" y="-20"/>
			<point x="776.33333" y="-0.33333"/>
			<point x="843.66667" y="39.66667" type="curve" smooth="yes"/>
			<point x="913.33333" y="75"/>
			<point x="975.33333" y="132"/>
			<point x="1019" y="211.33333" type="curve" smooth="yes"/>
			<point x="1073.66667" y="314.33333"/>
			<point x="1105" y="459.66667"/>
			<point x="1105" y="645.66667" type="curve" smooth="yes"/>
			<point x="1105" y="819"/>
			<point x="1078" y="957"/>
			<point x="1027" y="1061.66667" type="curve" smooth="yes"/>
			<point x="990.66667" y="1137.33333"/>
			<point x="939.66667" y="1195.66667"/>
			<point x="880.33333" y="1235.66667" type="curve" smooth="yes"/>
			<point x="804.66667" y="1286"/>
			<point x="711.33333" y="1311"/>
			<point x="601.33333" y="1311" type="curve" smooth="yes"/>
			<point x="471.33333" y="1311"/>
			<point x="350.33333" y="1272.33333"/>
			<point x="253.66667" y="1191.33333" type="curve" smooth="yes"/>
			<point x="168" y="1120.33333"/>
			<point x="110" y="1000.33333"/>
			<point x="110" y="856.33333" type="curve" smooth="yes"/>
			<point x="110" y="758.33333"/>
			<point x="132.66667" y="673"/>
			<point x="174.66667" y="606.33333" type="curve" smooth="yes"/>
			<point x="206.33333" y="555.33333"/>
			<point x="249" y="514.66667"/>
			<point x="300" y="485" type="curve" smooth="yes"/>
			<point x="355.33333" y="453.33333"/>
			<point x="420" y="436"/>
			<point x="492.66667" y="434.66667" type="curve" smooth="yes"/>
			<point x="519.33333" y="433.33333" type="line"/>
			<point x="546" y="559" type="line"/>
			<point x="516" y="563" type="line" smooth="yes"/>
			<point x="453.66667" y="564.33333"/>
			<point x="399.66667" y="587.66667"/>
			<point x="356.33333" y="627" type="curve" smooth="yes"/>
			<point x="302" y="678"/>
			<point x="269" y="760.66667"/>
			<point x="269" y="857.66667" type="curve" smooth="yes"/>
			<point x="269" y="947.66667"/>
			<point x="309" y="1038"/>
			<point x="372.66667" y="1095.33333" type="curve" smooth="yes"/>
			<point x="421" y="1139"/>
			<point x="501.66667" y="1170"/>
			<point x="605" y="1170" type="curve" smooth="yes"/>
			<point x="656.33333" y="1170"/>
			<point x="702.66667" y="1159.33333"/>
			<point x="743.66667" y="1138.66667" type="curve" smooth="yes"/>
			<point x="819.66667" y="1101"/>
			<point x="864.66667" y="1034"/>
			<point x="893" y="943.33333" type="curve" smooth="yes"/>
			<point x="920.66667" y="853.33333"/>
			<point x="930.33333" y="765"/>
			<point x="930.33333" y="645.66667" type="curve" smooth="yes"/>
			<point x="930.33333" y="578.66667"/>
			<point x="928" y="525"/>
			<point x="921" y="465" type="curve" smooth="yes"/>
			<point x="909.33333" y="366.33333"/>
			<point x="878.33333" y="270"/>
			<point x="825.66667" y="210.66667" type="curve" smooth="yes"/>
			<point x="777" y="154.66667"/>
			<point x="700.33333" y="119"/>
			<point x="600.66667" y="119" type="curve" smooth="yes"/>
			<point x="483.66667" y="119"/>
			<point x="365.66667" y="125.33333"/>
			<point x="245.66667" y="138.66667" type="curve"/>
			<point x="245.66667" y="2" type="line"/>
			<point x="287" y="-3.33333" type="line" smooth="yes"/>
			<point x="361" y="-13.66667"/>
			<point x="475" y="-20"/>
		</contour>
	</outline>
</glyph>
<glyph name="finaltsadi-hb" format="2">
	<advance width="989.66667"/>
	<unicode hex="05E5"/>
	<anchor x="488.66667" y="0" name="bottom"/>
	<anchor x="22.66667" y="0" name="bottomleft"/>
	<anchor x="488.66667" y="549.33333" name="center"/>
	<anchor x="488.66667" y="1097.66667" name="top"/>
	<anchor x="22.66667" y="1097.66667" name="topleft"/>
	<note>
		afii57685
	</note>
	<outline>
		<contour>
			<point x="275.33333" y="-492" type="line"/>
			<point x="444" y="-492" type="line"/>
			<point x="444" y="441" type="line"/>
			<point x="567" y="472.33333" type="line" smooth="yes"/>
			<point x="668.33333" y="490.66667"/>
			<point x="746.66667" y="537.33333"/>
			<point x="791.66667" y="590" type="curve" smooth="yes"/>
			<point x="850" y="659"/>
			<point x="879" y="757"/>
			<point x="879" y="883" type="curve" smooth="yes"/>
			<point x="879" y="1291" type="line"/>
			<point x="711.33333" y="1291" type="line"/>
			<point x="711.33333" y="886.66667" type="line" smooth="yes"/>
			<point x="711.33333" y="734.33333"/>
			<point x="651" y="634.66667"/>
			<point x="552.33333" y="610.66667" type="curve" smooth="yes"/>
			<point x="513.33333" y="600"/>
			<point x="474.33333" y="589.33333"/>
			<point x="435.33333" y="578.66667" type="curve"/>
			<point x="178.33333" y="1291" type="line"/>
			<point x="2.66667" y="1291" type="line"/>
			<point x="275.33333" y="557.33333" type="line"/>
		</contour>
	</outline>
</glyph>
<glyph name="tsadi-hb" format="2">
	<advance width="1140.66667"/>
	<unicode hex="05E6"/>
	<anchor x="567" y="0" name="bottom"/>
	<anchor x="22.66667" y="0" name="bottomleft"/>
	<anchor x="264.66667" y="503" name="center"/>
	<anchor x="567" y="1097.66667" name="top"/>
	<anchor x="22.66667" y="1097.66667" name="topleft"/>
	<note>
		afii57686
	</note>
	<outline>
		<contour>
			<point x="83" y="0" type="line"/>
			<point x="1033" y="0" type="line"/>
			<point x="1033" y="99.66667" type="line"/>
			<point x="757.66667" y="496.66667" type="line"/>
			<point x="813" y="547"/>
			<point x="860" y="605"/>
			<point x="897.66667" y="668.66667" type="curve" smooth="yes"/>
			<point x="927.66667" y="718"/>
			<point x="952" y="767.33333"/>
			<point x="970" y="819.66667" type="curve" smooth="yes"/>
			<point x="993.66667" y="886"/>
			<point x="1008" y="956.33333"/>
			<point x="1016" y="1035.66667" type="curve" smooth="yes"/>
			<point x="1040" y="1291" type="line"/>
			<point x="880.66667" y="1291" type="line"/>
			<point x="855.66667" y="1027" type="line" smooth="yes"/>
			<point x="839.66667" y="863.33333"/>
			<point x="778" y="728"/>
			<point x="671.33333" y="621.33333" type="curve"/>
			<point x="615.66667" y="705.66667" type="line"/>
			<point x="261.66667" y="1291" type="line"/>
			<point x="79" y="1291" type="line"/>
			<point x="519.66667" y="581.33333" type="line"/>
			<point x="827" y="135" type="line"/>
			<point x="699.66667" y="137.33333" type="line"/>
			<point x="83" y="137.33333" type="line"/>
		</contour>
	</outline>
</glyph>
<glyph name="qof-hb" format="2">
	<advance width="1219.33333"/>
	<unicode hex="05E7"/>
	<anchor x="615.66667" y="0" name="bottom"/>
	<anchor x="23.66667" y="0" name="bottomleft"/>
	<anchor x="589.66667" y="666" name="center"/>
	<anchor x="615.66667" y="1097.66667" name="top"/>
	<anchor x="23.66667" y="1097.66667" name="topleft"/>
	<note>
		afii57687
	</note>
	<outline>
		<contour>
			<point x="680" y="0" type="curve"/>
			<point x="846.66667" y="0" type="line"/>
			<point x="846.66667" y="27.33333" type="line" smooth="yes"/>
			<point x="846.66667" y="91.66667"/>
			<point x="892.33333" y="290.66667"/>
			<point x="913" y="360" type="curve" smooth="yes"/>
			<point x="926.33333" y="411"/>
			<point x="964" y="542.66667"/>
			<point x="974.66667" y="574.66667" type="curve" smooth="yes"/>
			<point x="1155.33333" y="1171.33333" type="line"/>
			<point x="1155.33333" y="1291" type="line"/>
			<point x="174.66667" y="1291" type="line"/>
			<point x="174.66667" y="1154" type="line"/>
			<point x="977.66667" y="1154" type="line"/>
			<point x="804.33333" y="576.66667" type="line" smooth="yes"/>
			<point x="777.66667" y="487"/>
			<point x="746.33333" y="373"/>
			<point x="736" y="328.66667" type="curve" smooth="yes"/>
			<point x="707.33333" y="214.33333"/>
			<point x="680" y="94.33333"/>
			<point x="680" y="27.33333" type="curve" smooth="yes"/>
			<point x="680" y="18"/>
			<point x="680" y="9.33333"/>
		</contour>
		<contour>
			<point x="175.33333" y="-492" type="line"/>
			<point x="344.33333" y="-492" type="line"/>
			<point x="344.33333" y="764" type="line"/>
			<point x="175.33333" y="764" type="line"/>
		</contour>
	</outline>
</glyph>
<glyph name="resh-hb" format="2">
	<advance width="1022.66667"/>
	<unicode hex="05E8"/>
	<anchor x="510.33333" y="0" name="bottom"/>
	<anchor x="18" y="0" name="bottomleft"/>
	<anchor x="341.33333" y="667" name="center"/>
	<anchor x="510.33333" y="1097.66667" name="top"/>
	<anchor x="18" y="1097.66667" name="topleft"/>
	<note>
		afii57688
	</note>
	<outline>
		<contour>
			<point x="693.33333" y="0" type="line"/>
			<point x="862" y="0" type="line"/>
			<point x="862" y="917" type="line" smooth="yes"/>
			<point x="862" y="987.66667"/>
			<point x="854" y="1043.33333"/>
			<point x="834.66667" y="1095.66667" type="curve" smooth="yes"/>
			<point x="802" y="1181"/>
			<point x="749" y="1230"/>
			<point x="666" y="1265.33333" type="curve" smooth="yes"/>
			<point x="583" y="1300"/>
			<point x="502.66667" y="1311"/>
			<point x="341.66667" y="1311" type="curve" smooth="yes"/>
			<point x="261.33333" y="1311"/>
			<point x="162" y="1307.33333"/>
			<point x="44.33333" y="1298.66667" type="curve"/>
			<point x="44.33333" y="1158.66667" type="line"/>
			<point x="136.33333" y="1166"/>
			<point x="287" y="1172.33333"/>
			<point x="364.66667" y="1172.33333" type="curve" smooth="yes"/>
			<point x="408" y="1172.33333"/>
			<point x="446.33333" y="1169"/>
			<point x="478.33333" y="1163" type="curve" smooth="yes"/>
			<point x="620.33333" y="1143.33333"/>
			<point x="693.33333" y="1074.66667"/>
			<point x="693.33333" y="917" type="curve" smooth="yes"/>
		</contour>
	</outline>
</glyph>
<glyph name="shin-hb" format="2">
	<advance width="1447.66667"/>
	<unicode hex="05E9"/>
	<anchor x="720.33333" y="0" name="bottom"/>
	<anchor x="26.66667" y="0" name="bottomleft"/>
	<anchor x="804.66667" y="448.66667" name="center"/>
	<anchor x="720.33333" y="1097.66667" name="top"/>
	<anchor x="212.66667" y="1372.66667" name="topleft"/>
	<anchor x="1343.66667" y="1236" name="topright"/>
	<note>
		afii57689
	</note>
	<outline>
		<contour>
			<point x="191" y="0" type="line"/>
			<point x="608.66667" y="0" type="line" smooth="yes"/>
			<point x="713.33333" y="0"/>
			<point x="810" y="17.33333"/>
			<point x="896.33333" y="61.33333" type="curve" smooth="yes"/>
			<point x="1026.66667" y="116.33333"/>
			<point x="1118.33333" y="207.66667"/>
			<point x="1190.33333" y="325.33333" type="curve" smooth="yes"/>
			<point x="1261" y="440.66667"/>
			<point x="1305.33333" y="575.33333"/>
			<point x="1319.66667" y="727.66667" type="curve" smooth="yes"/>
			<point x="1374.33333" y="1291" type="line"/>
			<point x="1216" y="1291" type="line"/>
			<point x="1162.66667" y="730" type="line" smooth="yes"/>
			<point x="1151.33333" y="613.66667"/>
			<point x="1120" y="510.33333"/>
			<point x="1069.66667" y="419.66667" type="curve" smooth="yes"/>
			<point x="967.66667" y="240.66667"/>
			<point x="803.33333" y="136.33333"/>
			<point x="619.33333" y="136.33333" type="curve" smooth="yes"/>
			<point x="340" y="136.33333" type="line"/>
			<point x="315.66667" y="424" type="line"/>
			<point x="317.66667" y="424"/>
			<point x="320.66667" y="424.66667"/>
			<point x="322.66667" y="424.66667" type="curve"/>
			<point x="479" y="452.33333"/>
			<point x="584" y="501.66667"/>
			<point x="659.33333" y="593.33333" type="curve" smooth="yes"/>
			<point x="739.66667" y="688"/>
			<point x="776" y="810.33333"/>
			<point x="793" y="989" type="curve" smooth="yes"/>
			<point x="821.33333" y="1291" type="line"/>
			<point x="664" y="1291" type="line"/>
			<point x="635.66667" y="987.66667" type="line" smooth="yes"/>
			<point x="624" y="864.33333"/>
			<point x="595.33333" y="749.33333"/>
			<point x="532.66667" y="674" type="curve" smooth="yes"/>
			<point x="480" y="611.66667"/>
			<point x="393.66667" y="575.66667"/>
			<point x="304.33333" y="554.33333" type="curve"/>
			<point x="242.66667" y="1291" type="line"/>
			<point x="82" y="1291" type="line"/>
		</contour>
	</outline>
</glyph>
<glyph name="tav-hb" format="2">
	<advance width="1299.66667"/>
	<unicode hex="05EA"/>
	<anchor x="649.33333" y="0" name="bottom"/>
	<anchor x="29.33333" y="0" name="bottomleft"/>
	<anchor x="681.33333" y="664.33333" name="center"/>
	<anchor x="649.33333" y="1097.66667" name="top"/>
	<anchor x="29.33333" y="1097.66667" name="topleft"/>
	<note>
		afii57690
	</note>
	<outline>
		<contour>
			<point x="134.33333" y="-4.33333" type="curve" smooth="yes"/>
			<point x="219" y="-4.33333"/>
			<point x="284.66667" y="14"/>
			<point x="333.33333" y="51.33333" type="curve" smooth="yes"/>
			<point x="363.66667" y="74.66667"/>
			<point x="386.33333" y="105.33333"/>
			<point x="403" y="143" type="curve" smooth="yes"/>
			<point x="426.33333" y="194"/>
			<point x="436" y="254.66667"/>
			<point x="436" y="328.33333" type="curve" smooth="yes"/>
			<point x="436" y="1166.33333" type="line"/>
			<point x="507.33333" y="1170.33333"/>
			<point x="568" y="1172"/>
			<point x="618" y="1172" type="curve" smooth="yes"/>
			<point x="668.66667" y="1172"/>
			<point x="710.66667" y="1169.33333"/>
			<point x="742.33333" y="1163.66667" type="curve" smooth="yes"/>
			<point x="886" y="1144.66667"/>
			<point x="959.66667" y="1075.66667"/>
			<point x="959.66667" y="916.66667" type="curve" smooth="yes"/>
			<point x="959.66667" y="0" type="line"/>
			<point x="1128.33333" y="0" type="line"/>
			<point x="1128.33333" y="920.66667" type="line" smooth="yes"/>
			<point x="1128.33333" y="987.33333"/>
			<point x="1120.66667" y="1044"/>
			<point x="1103.33333" y="1091" type="curve" smooth="yes"/>
			<point x="1072.66667" y="1174"/>
			<point x="1024" y="1222"/>
			<point x="947" y="1257.66667" type="curve" smooth="yes"/>
			<point x="863.66667" y="1296.66667"/>
			<point x="781.33333" y="1311"/>
			<point x="598" y="1311" type="curve" smooth="yes"/>
			<point x="482.66667" y="1311"/>
			<point x="324.66667" y="1302.66667"/>
			<point x="123" y="1287" type="curve"/>
			<point x="123" y="1147" type="line"/>
			<point x="171.33333" y="1150"/>
			<point x="219" y="1154"/>
			<point x="267.33333" y="1157" type="curve"/>
			<point x="267.33333" y="328.33333" type="line" smooth="yes"/>
			<point x="267.33333" y="197"/>
			<point x="216.33333" y="136.33333"/>
			<point x="121" y="136.33333" type="curve" smooth="yes"/>
			<point x="93.66667" y="136.33333"/>
			<point x="66.33333" y="138"/>
			<point x="40.33333" y="141.66667" type="curve"/>
			<point x="40.33333" y="12.33333" type="line"/>
			<point x="77.66667" y="1.33333"/>
			<point x="107.66667" y="-4.33333"/>
		</contour>
	</outline>
</glyph>
